<svg width="103" height="20" viewBox="0 0 103 20" fill="none" xmlns="http://www.w3.org/2000/svg">
<path fill-rule="evenodd" clip-rule="evenodd" d="M12.8592 10.413H11.4272L7.36364 18.2132L8.07962 19.5H17.182L18 18.6326V14.3605H16.364V17.7652H9.46602L12.1432 12.6263L13.7671 15.7435L15.1991 14.9046L12.8592 10.413Z" fill="#1CCFC3"/>
<path fill-rule="evenodd" clip-rule="evenodd" d="M0 1.3452L0.824176 0.5H17.1758L18 1.3452V9.19701H16.3516V2.19039H1.64835V17.8096H5.47675V19.5H0.824176L0 18.6548V1.3452Z" fill="#1CCFC3"/>
<path fill-rule="evenodd" clip-rule="evenodd" d="M16.3636 12.8913V10.413H18V12.8913H16.3636Z" fill="#1CCFC3"/>
<path d="M96.6401 17.45V13.57H92.7601V11.31H96.6401V7.45001H98.9001V11.31H102.76V13.57H98.9001V17.45H96.6401Z" fill="white"/>
<path d="M84.0786 17.69C83.3186 17.69 82.6586 17.5634 82.0986 17.31C81.5386 17.0567 81.1053 16.6967 80.7986 16.23C80.492 15.75 80.3386 15.1967 80.3386 14.57C80.3386 13.97 80.472 13.4367 80.7386 12.97C81.0053 12.49 81.4186 12.09 81.9786 11.77C82.5386 11.45 83.2453 11.2234 84.0986 11.09L87.6586 10.51V12.51L84.5986 13.03C84.0786 13.1234 83.692 13.29 83.4386 13.53C83.1853 13.77 83.0586 14.0834 83.0586 14.47C83.0586 14.8434 83.1986 15.1434 83.4786 15.37C83.772 15.5834 84.132 15.69 84.5586 15.69C85.1053 15.69 85.5853 15.5767 85.9986 15.35C86.4253 15.11 86.752 14.7834 86.9786 14.37C87.2186 13.9567 87.3386 13.5034 87.3386 13.01V10.21C87.3386 9.74335 87.152 9.35668 86.7786 9.05002C86.4186 8.73002 85.9386 8.57002 85.3386 8.57002C84.7786 8.57002 84.2786 8.72335 83.8386 9.03002C83.412 9.32335 83.0986 9.71668 82.8986 10.21L80.7586 9.17002C80.972 8.59668 81.3053 8.10335 81.7586 7.69002C82.2253 7.26335 82.772 6.93002 83.3986 6.69002C84.0253 6.45002 84.7053 6.33002 85.4386 6.33002C86.332 6.33002 87.1186 6.49668 87.7986 6.83002C88.4786 7.15002 89.0053 7.60335 89.3786 8.19002C89.7653 8.76335 89.9586 9.43668 89.9586 10.21V17.45H87.4786V15.59L88.0386 15.55C87.7586 16.0167 87.4253 16.41 87.0386 16.73C86.652 17.0367 86.212 17.2767 85.7186 17.45C85.2253 17.61 84.6786 17.69 84.0786 17.69Z" fill="white"/>
<path d="M75.7395 17.45V6.56999H78.3595V17.45H75.7395ZM75.7395 5.34999V2.54999H78.3595V5.34999H75.7395Z" fill="white"/>
<path d="M68.259 17.45V6.57001H70.719V8.99001L70.519 8.63001C70.7724 7.81668 71.1657 7.25001 71.699 6.93001C72.2457 6.61001 72.899 6.45001 73.659 6.45001H74.299V8.77001H73.359C72.6124 8.77001 72.0124 9.00335 71.559 9.47001C71.1057 9.92335 70.879 10.5633 70.879 11.39V17.45H68.259Z" fill="white"/>
<path d="M61.173 17.69C60.053 17.69 59.073 17.4367 58.233 16.93C57.393 16.4234 56.7397 15.7367 56.273 14.87C55.8063 14.0034 55.573 13.0434 55.573 11.99C55.573 10.8967 55.8063 9.93002 56.273 9.09002C56.753 8.23668 57.3997 7.56335 58.213 7.07002C59.0397 6.57668 59.9597 6.33002 60.973 6.33002C61.8263 6.33002 62.573 6.47002 63.213 6.75002C63.8663 7.03002 64.4197 7.41668 64.873 7.91002C65.3263 8.40335 65.673 8.97002 65.913 9.61002C66.153 10.2367 66.273 10.9167 66.273 11.65C66.273 11.8367 66.2597 12.03 66.233 12.23C66.2197 12.43 66.1863 12.6034 66.133 12.75H57.733V10.75H64.653L63.413 11.69C63.533 11.0767 63.4997 10.53 63.313 10.05C63.1397 9.57002 62.8463 9.19002 62.433 8.91002C62.033 8.63002 61.5463 8.49002 60.973 8.49002C60.4263 8.49002 59.9397 8.63002 59.513 8.91002C59.0863 9.17668 58.7597 9.57668 58.533 10.11C58.3197 10.63 58.2397 11.2634 58.293 12.01C58.2397 12.6767 58.3263 13.27 58.553 13.79C58.793 14.2967 59.1397 14.69 59.593 14.97C60.0597 15.25 60.593 15.39 61.193 15.39C61.793 15.39 62.2997 15.2634 62.713 15.01C63.1397 14.7567 63.473 14.4167 63.713 13.99L65.833 15.03C65.6197 15.55 65.2863 16.01 64.833 16.41C64.3797 16.81 63.8397 17.1234 63.213 17.35C62.5997 17.5767 61.9197 17.69 61.173 17.69Z" fill="white"/>
<path d="M50.9739 17.45V2.31H53.5939V17.45H50.9739Z" fill="white"/>
<path d="M42.6724 17.69C41.9124 17.69 41.2524 17.5634 40.6924 17.31C40.1324 17.0567 39.699 16.6967 39.3924 16.23C39.0857 15.75 38.9324 15.1967 38.9324 14.57C38.9324 13.97 39.0657 13.4367 39.3324 12.97C39.599 12.49 40.0124 12.09 40.5724 11.77C41.1324 11.45 41.839 11.2234 42.6924 11.09L46.2524 10.51V12.51L43.1924 13.03C42.6724 13.1234 42.2857 13.29 42.0324 13.53C41.779 13.77 41.6524 14.0834 41.6524 14.47C41.6524 14.8434 41.7924 15.1434 42.0724 15.37C42.3657 15.5834 42.7257 15.69 43.1524 15.69C43.699 15.69 44.179 15.5767 44.5924 15.35C45.019 15.11 45.3457 14.7834 45.5724 14.37C45.8124 13.9567 45.9324 13.5034 45.9324 13.01V10.21C45.9324 9.74335 45.7457 9.35668 45.3724 9.05002C45.0124 8.73002 44.5324 8.57002 43.9324 8.57002C43.3724 8.57002 42.8724 8.72335 42.4324 9.03002C42.0057 9.32335 41.6924 9.71668 41.4924 10.21L39.3524 9.17002C39.5657 8.59668 39.899 8.10335 40.3524 7.69002C40.819 7.26335 41.3657 6.93002 41.9924 6.69002C42.619 6.45002 43.299 6.33002 44.0324 6.33002C44.9257 6.33002 45.7124 6.49668 46.3924 6.83002C47.0724 7.15002 47.599 7.60335 47.9724 8.19002C48.359 8.76335 48.5524 9.43668 48.5524 10.21V17.45H46.0724V15.59L46.6324 15.55C46.3524 16.0167 46.019 16.41 45.6324 16.73C45.2457 17.0367 44.8057 17.2767 44.3124 17.45C43.819 17.61 43.2724 17.69 42.6724 17.69Z" fill="white"/>
<path d="M30.5 17.69C29.4333 17.69 28.4467 17.4967 27.54 17.11C26.6333 16.7233 25.84 16.1833 25.16 15.49C24.48 14.7967 23.9467 13.9833 23.56 13.05C23.1867 12.1167 23 11.0967 23 9.99C23 8.88333 23.18 7.86333 23.54 6.93C23.9133 5.98333 24.4333 5.17 25.1 4.49C25.78 3.79666 26.5733 3.26333 27.48 2.89C28.3867 2.50333 29.3733 2.31 30.44 2.31C31.5067 2.31 32.46 2.49 33.3 2.85C34.1533 3.21 34.8733 3.69 35.46 4.29C36.0467 4.87666 36.4667 5.52333 36.72 6.23L34.3 7.39C34.02 6.61666 33.5467 5.99 32.88 5.51C32.2133 5.03 31.4 4.79 30.44 4.79C29.5067 4.79 28.68 5.01 27.96 5.45C27.2533 5.89 26.7 6.49666 26.3 7.27C25.9133 8.04333 25.72 8.95 25.72 9.99C25.72 11.03 25.92 11.9433 26.32 12.73C26.7333 13.5033 27.3 14.11 28.02 14.55C28.74 14.99 29.5667 15.21 30.5 15.21C31.26 15.21 31.96 15.0633 32.6 14.77C33.24 14.4633 33.7533 14.0367 34.14 13.49C34.5267 12.93 34.72 12.27 34.72 11.51V10.37L35.96 11.45H30.44V9.15H37.44V10.65C37.44 11.7967 37.2467 12.81 36.86 13.69C36.4733 14.57 35.9467 15.31 35.28 15.91C34.6267 16.4967 33.8867 16.9433 33.06 17.25C32.2333 17.5433 31.38 17.69 30.5 17.69Z" fill="white"/>
</svg>
