<svg width="144" height="144" viewBox="0 0 144 144" fill="none" xmlns="http://www.w3.org/2000/svg">
<path d="M96.9884 103.184V135.299C96.9884 138.01 96.1413 139.849 94.4593 140.817C92.7652 141.773 90.7443 141.568 88.3726 140.2L28.0983 105.398C25.7265 104.031 23.6935 101.901 22.0115 98.9846C20.3295 96.0804 19.4825 93.2609 19.4825 90.5503V21.3819C19.4825 18.6592 20.3295 16.8199 22.0115 15.8639L22.544 15.5977C24.1171 14.9563 25.9685 15.2468 28.0983 16.4689L43.6842 25.472L52.3 30.4454L81.8018 47.4834C83.024 48.1852 84.0526 49.2501 84.8754 50.6659C85.6983 52.0938 86.1097 53.5096 86.1097 54.9012C86.1097 56.2928 85.6983 57.2367 84.8754 57.7086C84.0526 58.1805 83.024 58.0595 81.8018 57.3577L52.3 40.3197L43.6842 35.3463L28.0983 26.3432V95.5237L88.3726 130.326V98.2101C88.3726 96.8064 88.784 95.8747 89.6069 95.4027L89.861 95.2817C90.6354 94.955 91.5793 95.1244 92.6805 95.7537C93.9027 96.4555 94.9191 97.5204 95.742 98.9483C96.5769 100.364 96.9884 101.78 96.9884 103.184Z" stroke="#1CCFC3" stroke-width="0.403361" stroke-linecap="round" stroke-linejoin="round"/>
<path d="M124.203 62.6819C124.203 64.0735 123.768 65.0295 122.908 65.5135L83.3993 88.0332L83.0846 88.1905L71.008 94.2288L61.8477 98.815L59.1976 100.134L61.6903 98.7182L70.2939 93.8053L80.6401 87.9122L98.7067 77.6143C99.5659 77.1303 100.001 76.1743 100.001 74.7828C100.001 73.3912 99.5659 71.9754 98.7067 70.5717C97.8475 69.168 96.8432 68.1394 95.6936 67.4738C95.6089 67.4254 95.5243 67.377 95.4396 67.3407C94.5078 66.8567 93.709 66.7599 93.0314 67.0382L116.991 55.0584C117.778 54.6106 118.746 54.7075 119.895 55.373C121.045 56.0385 122.049 57.0671 122.908 58.4708C123.768 59.8745 124.203 61.2782 124.203 62.6819Z" stroke="#1CCFC3" stroke-width="0.403361" stroke-linecap="round" stroke-linejoin="round"/>
<path d="M100.001 74.7827C100.001 76.1743 99.5658 77.1303 98.7067 77.6143L80.6401 87.9121L70.2939 93.8052L61.6902 98.7182L59.1974 100.134C58.3383 100.63 57.3339 100.545 56.1843 99.8798C55.0347 99.2143 54.0304 98.1494 53.1712 96.661L50.4969 92.0506L47.024 86.0607L43.8535 80.5911L34.8747 65.0899C34.0882 63.7346 33.6888 62.3551 33.6888 60.9514C33.6888 59.5477 34.0882 58.6281 34.8747 58.1804L35.1409 58.0472C35.8912 57.7689 36.7988 57.9262 37.8878 58.5555C39.11 59.2694 40.1144 60.298 40.9009 61.6533L43.6841 66.4573L52.2999 81.3172L54.1272 84.4755L56.1843 88.021L58.2414 86.8472L73.6216 78.0862L79.6478 74.6496L92.7893 67.1592L93.0314 67.0382C93.709 66.7598 94.5077 66.8567 95.4394 67.3407C95.5241 67.377 95.6088 67.4254 95.6936 67.4738C96.8431 68.1393 97.8475 69.1679 98.7067 70.5716C99.5658 71.9753 100.001 73.379 100.001 74.7827Z" stroke="#1CCFC3" stroke-width="0.403361" stroke-linecap="round" stroke-linejoin="round"/>
<path d="M88.3726 104.248V130.326L28.0983 95.5236L46.0317 86.5569L47.024 86.0608L50.4969 92.0507L53.1712 96.6611C54.0304 98.1495 55.0348 99.2144 56.1843 99.8799C57.3339 100.545 58.3383 100.63 59.1974 100.134L61.8475 98.8151L71.0079 94.2289L88.3726 104.248Z" stroke="#1CCFC3" stroke-width="0.403361" stroke-linecap="round" stroke-linejoin="round"/>
<path d="M33.6889 60.9519C33.6889 62.3556 34.0882 63.7351 34.8747 65.0904L43.8536 80.5916L47.024 86.0612L46.0317 86.5573L28.0983 95.524V26.3435L43.6842 35.3465L52.3 40.32V49.4682L34.8747 58.1808C34.0882 58.6286 33.6889 59.5482 33.6889 60.9519Z" stroke="#1CCFC3" stroke-width="0.403361" stroke-linecap="round" stroke-linejoin="round"/>
<path d="M79.6478 74.6496L73.6215 78.0863L58.2414 86.8473L56.1844 88.021L54.1271 84.4755L52.2999 81.3172L43.6841 66.4574L40.9009 61.6533C40.1143 60.298 39.1101 59.2695 37.8879 58.5555C36.7988 57.9263 35.8911 57.7689 35.1409 58.0473L59.0763 46.0795C59.8629 45.6318 60.8674 45.7528 62.0896 46.4547C63.3117 47.1686 64.316 48.1972 65.1025 49.5525L79.6478 74.6496Z" stroke="#1CCFC3" stroke-width="0.403361" stroke-linecap="round" stroke-linejoin="round"/>
<path d="M110.311 42.8005C110.311 44.2042 109.9 45.136 109.077 45.6079L108.823 45.7289L84.8754 57.7088C85.6983 57.2368 86.1098 56.3051 86.1098 54.9014C86.1098 53.4977 85.6983 52.094 84.8754 50.6661C84.0525 49.2503 83.0241 48.1854 81.8019 47.4836L52.3001 30.4456L43.6843 25.4721L28.0983 16.4691C25.9686 15.2469 24.1171 14.9565 22.544 15.5978L46.2132 3.76323C47.8952 2.79516 49.9283 3.00088 52.3001 4.36827L106.004 35.3827C107.226 36.0846 108.254 37.1494 109.077 38.5652C109.9 39.9931 110.311 41.4089 110.311 42.8005Z" stroke="#1CCFC3" stroke-width="0.403361" stroke-linecap="round" stroke-linejoin="round"/>
<path d="M121.19 91.0829V123.199C121.19 125.909 120.343 127.749 118.661 128.717L118.129 128.983L94.4593 140.817C96.1413 139.849 96.9882 138.01 96.9882 135.299V103.184C96.9882 101.78 96.5769 100.364 95.742 98.9484C94.9191 97.5205 93.9025 96.4556 92.6803 95.7538C91.5792 95.1245 90.6353 94.9551 89.8608 95.2818L113.808 83.302C114.631 82.8301 115.66 82.9511 116.882 83.6529C118.104 84.3548 119.121 85.4197 119.944 86.8476C120.779 88.2634 121.19 89.6792 121.19 91.0829Z" stroke="#1CCFC3" stroke-width="0.403361" stroke-linecap="round" stroke-linejoin="round"/>
</svg>
