<svg width="34" height="34" viewBox="0 0 34 34"  xmlns="http://www.w3.org/2000/svg">
<path opacity="0.2" d="M29.75 17C29.75 19.5217 29.0022 21.9868 27.6012 24.0835C26.2003 26.1803 24.209 27.8144 21.8792 28.7795C19.5495 29.7445 16.9859 29.997 14.5126 29.505C12.0393 29.0131 9.76751 27.7987 7.98439 26.0156C6.20127 24.2325 4.98695 21.9607 4.49499 19.4874C4.00303 17.0141 4.25552 14.4505 5.22054 12.1208C6.18556 9.79103 7.81976 7.79975 9.91649 6.39876C12.0132 4.99777 14.4783 4.25 17 4.25C20.3815 4.25 23.6245 5.5933 26.0156 7.98439C28.4067 10.3755 29.75 13.6185 29.75 17Z" />
<path d="M17 3.1875C14.2682 3.1875 11.5976 3.99759 9.32619 5.51533C7.05474 7.03306 5.28436 9.19028 4.23892 11.7142C3.19348 14.2381 2.91995 17.0153 3.45291 19.6947C3.98587 22.374 5.30138 24.8352 7.23309 26.7669C9.16481 28.6986 11.626 30.0141 14.3053 30.5471C16.9847 31.0801 19.7619 30.8065 22.2858 29.7611C24.8097 28.7157 26.9669 26.9453 28.4847 24.6738C30.0024 22.4024 30.8125 19.7319 30.8125 17C30.8086 13.3379 29.3522 9.82687 26.7626 7.23736C24.1731 4.64785 20.6621 3.19137 17 3.1875ZM17 28.6875C14.6884 28.6875 12.4288 28.002 10.5068 26.7178C8.58478 25.4336 7.08676 23.6082 6.20216 21.4726C5.31756 19.337 5.08611 16.987 5.53708 14.7199C5.98804 12.4527 7.10117 10.3702 8.7357 8.73569C10.3702 7.10116 12.4527 5.98804 14.7199 5.53707C16.987 5.08611 19.337 5.31756 21.4726 6.20216C23.6082 7.08676 25.4336 8.58477 26.7178 10.5068C28.002 12.4288 28.6875 14.6884 28.6875 17C28.684 20.0986 27.4515 23.0694 25.2604 25.2604C23.0694 27.4515 20.0986 28.684 17 28.6875Z" />
</svg>
