<svg viewBox="0 0 150 48" fill="none" xmlns="http://www.w3.org/2000/svg">
<path d="M4 15.1668C4 12.379 6.2599 10.1191 9.04762 10.1191H26.7143C29.502 10.1191 31.7619 12.379 31.7619 15.1668V32.8334C31.7619 35.6212 29.502 37.881 26.7143 37.881H9.04762C6.2599 37.881 4 35.6212 4 32.8334V15.1668Z" fill="#CDDFCC"/>
<path d="M26.353 7.52941H9.88243C9.23268 7.52941 8.70596 7.00269 8.70596 6.35294V5.17647C8.70596 4.52672 9.23268 4 9.88243 4H26.353C27.0027 4 27.5295 4.52672 27.5295 5.17647V6.35294C27.5295 7.00269 27.0027 7.52941 26.353 7.52941Z" fill="#52A350"/>
<path d="M26.353 44H9.88243C9.23268 44 8.70596 43.4733 8.70596 42.8235V41.6471C8.70596 40.9973 9.23268 40.4706 9.88243 40.4706H26.353C27.0027 40.4706 27.5295 40.9973 27.5295 41.6471V42.8235C27.5295 43.4733 27.0027 44 26.353 44Z" fill="#52A350"/>
<path fill-rule="evenodd" clip-rule="evenodd" d="M26.7143 12.6429H9.04762C7.65376 12.6429 6.52381 13.7728 6.52381 15.1667V32.8333C6.52381 34.2272 7.65376 35.3571 9.04762 35.3571H26.7143C28.1081 35.3571 29.2381 34.2272 29.2381 32.8333V15.1667C29.2381 13.7728 28.1081 12.6429 26.7143 12.6429ZM9.04762 10.1191C6.2599 10.1191 4 12.3789 4 15.1667V32.8333C4 35.6211 6.2599 37.881 9.04762 37.881H26.7143C29.502 37.881 31.7619 35.6211 31.7619 32.8333V15.1667C31.7619 12.3789 29.502 10.1191 26.7143 10.1191H9.04762Z" fill="#52A350"/>
<path fill-rule="evenodd" clip-rule="evenodd" d="M25.17 21.2421C25.5465 21.6125 25.5465 22.2129 25.17 22.5833L17.5986 30.0317C17.2221 30.4021 16.6117 30.4021 16.2352 30.0317L10.5919 24.4801C10.2154 24.1098 10.2154 23.5093 10.5919 23.1389L12.637 21.127C13.0135 20.7566 13.6239 20.7566 14.0004 21.127L16.9169 23.9961L21.7615 19.2302C22.138 18.8598 22.7484 18.8598 23.1249 19.2302L25.17 21.2421Z" fill="#52A350"/>
<path fill-rule="evenodd" clip-rule="evenodd" d="M25.17 21.2421C25.5465 21.6125 25.5465 22.2129 25.17 22.5833L17.5986 30.0317C17.2221 30.4021 16.6117 30.4021 16.2352 30.0317L10.5919 24.4801C10.2154 24.1098 10.2154 23.5093 10.5919 23.1389L12.637 21.127C13.0135 20.7566 13.6239 20.7566 14.0004 21.127L16.9169 23.9961L21.7615 19.2302C22.138 18.8598 22.7484 18.8598 23.1249 19.2302L25.17 21.2421Z" fill="#52A350"/>
<path d="M47.8437 32.487V19.2959H43.7619V15.6372H56.2063V19.2959H52.2739V32.487H47.8437Z" fill="#332E32"/>
<path d="M61.7817 32.7857C60.3547 32.7857 59.1849 32.5617 58.2723 32.1137C57.3597 31.6657 56.6794 30.9522 56.2314 29.9732C55.8 28.9943 55.5843 27.7249 55.5843 26.1652C55.5843 24.6221 55.8083 23.3777 56.2563 22.4319C56.7043 21.4861 57.3846 20.7892 58.2972 20.3412C59.2264 19.8932 60.3879 19.6692 61.7817 19.6692C63.1754 19.6692 64.3286 19.8932 65.2412 20.3412C66.1538 20.7892 66.8341 21.4861 67.2821 22.4319C67.7301 23.3777 67.9541 24.6221 67.9541 26.1652C67.9541 27.7249 67.7384 28.9943 67.307 29.9732C66.8756 30.9522 66.2036 31.6657 65.291 32.1137C64.3784 32.5617 63.2086 32.7857 61.7817 32.7857ZM61.7817 29.2763C62.296 29.2763 62.6777 29.1768 62.9265 28.9777C63.192 28.7786 63.3745 28.4467 63.4741 27.9821C63.5737 27.5175 63.6234 26.9119 63.6234 26.1652C63.6234 25.402 63.5654 24.8046 63.4492 24.3732C63.3331 23.9418 63.1422 23.6349 62.8768 23.4523C62.6279 23.2532 62.2628 23.1537 61.7817 23.1537C61.3005 23.1537 60.9271 23.2532 60.6617 23.4523C60.3962 23.6349 60.2054 23.9501 60.0892 24.3981C59.9731 24.8295 59.915 25.4186 59.915 26.1652C59.915 26.9119 59.9648 27.5175 60.0643 27.9821C60.1639 28.4467 60.3464 28.7786 60.6119 28.9777C60.8774 29.1768 61.2673 29.2763 61.7817 29.2763Z" fill="#332E32"/>
<path d="M69.7187 32.487V15.6372H76.4387C77.8159 15.6372 78.9856 15.8114 79.948 16.1599C80.9104 16.5083 81.6819 17.031 82.2627 17.7279C82.86 18.4082 83.2914 19.2627 83.5569 20.2914C83.8224 21.3036 83.9551 22.4734 83.9551 23.8008C83.9551 25.1448 83.8307 26.3477 83.5818 27.4097C83.3329 28.4716 82.9264 29.3842 82.3622 30.1474C81.7981 30.9107 81.0431 31.4914 80.0973 31.8897C79.1516 32.2879 77.9901 32.487 76.6129 32.487H69.7187ZM74.1489 28.8283H76.2893C76.9862 28.8283 77.5421 28.7039 77.9569 28.455C78.3883 28.2061 78.7119 27.8577 78.9276 27.4097C79.1433 26.9617 79.2843 26.4307 79.3507 25.8168C79.4171 25.2029 79.4502 24.5309 79.4502 23.8008C79.4502 23.1039 79.4088 22.4817 79.3258 21.9341C79.2428 21.37 79.0935 20.8888 78.8778 20.4906C78.6621 20.0923 78.3468 19.7937 77.932 19.5946C77.5172 19.3954 76.9696 19.2959 76.2893 19.2959H74.1489V28.8283Z" fill="#332E32"/>
<path d="M91.556 32.7857C90.129 32.7857 88.9592 32.5617 88.0466 32.1137C87.134 31.6657 86.4537 30.9522 86.0057 29.9732C85.5743 28.9943 85.3586 27.7249 85.3586 26.1652C85.3586 24.6221 85.5826 23.3777 86.0306 22.4319C86.4786 21.4861 87.1589 20.7892 88.0715 20.3412C89.0007 19.8932 90.1622 19.6692 91.556 19.6692C92.9497 19.6692 94.1029 19.8932 95.0155 20.3412C95.9281 20.7892 96.6084 21.4861 97.0564 22.4319C97.5044 23.3777 97.7284 24.6221 97.7284 26.1652C97.7284 27.7249 97.5127 28.9943 97.0813 29.9732C96.6499 30.9522 95.9779 31.6657 95.0653 32.1137C94.1527 32.5617 92.9829 32.7857 91.556 32.7857ZM91.556 29.2763C92.0703 29.2763 92.452 29.1768 92.7008 28.9777C92.9663 28.7786 93.1488 28.4467 93.2484 27.9821C93.348 27.5175 93.3977 26.9119 93.3977 26.1652C93.3977 25.402 93.3397 24.8046 93.2235 24.3732C93.1074 23.9418 92.9165 23.6349 92.6511 23.4523C92.4022 23.2532 92.0371 23.1537 91.556 23.1537C91.0748 23.1537 90.7014 23.2532 90.436 23.4523C90.1705 23.6349 89.9797 23.9501 89.8635 24.3981C89.7474 24.8295 89.6893 25.4186 89.6893 26.1652C89.6893 26.9119 89.7391 27.5175 89.8386 27.9821C89.9382 28.4467 90.1207 28.7786 90.3862 28.9777C90.6517 29.1768 91.0416 29.2763 91.556 29.2763Z" fill="#332E32"/>
<path d="M105.035 32.487V15.6372H109.465V28.8283H115.637V32.487H105.035Z" fill="#332E32"/>
<path d="M116.99 32.487V19.9679H121.246V32.487H116.99ZM116.965 18.4746V15.2141H121.271V18.4746H116.965Z" fill="#332E32"/>
<path d="M128.359 32.7857C127.679 32.7857 126.998 32.7525 126.318 32.6861C125.654 32.6197 125.041 32.5451 124.476 32.4621C123.929 32.3626 123.481 32.2713 123.132 32.1883L123.257 29.1768C123.688 29.2266 124.178 29.2846 124.725 29.351C125.289 29.4174 125.837 29.4754 126.368 29.5252C126.915 29.5584 127.363 29.575 127.712 29.575C128.094 29.575 128.401 29.5501 128.633 29.5003C128.882 29.4506 129.064 29.3593 129.18 29.2266C129.297 29.0938 129.355 28.9196 129.355 28.7039C129.355 28.5214 129.288 28.3803 129.155 28.2808C129.039 28.1812 128.815 28.09 128.483 28.007C128.152 27.924 127.662 27.8411 127.015 27.7581C126.086 27.6254 125.323 27.4263 124.725 27.1608C124.145 26.8787 123.713 26.4805 123.431 25.9661C123.166 25.4517 123.033 24.7714 123.033 23.9252C123.033 22.8135 123.265 21.9507 123.73 21.3368C124.194 20.7229 124.817 20.2914 125.596 20.0426C126.393 19.7937 127.272 19.6692 128.235 19.6692C128.898 19.6692 129.554 19.7024 130.201 19.7688C130.865 19.8186 131.47 19.8932 132.018 19.9928C132.582 20.0757 133.038 20.1587 133.387 20.2417L133.262 23.3528C132.831 23.303 132.333 23.2532 131.769 23.2034C131.205 23.1371 130.657 23.0873 130.126 23.0541C129.595 23.0209 129.147 23.0043 128.782 23.0043C128.483 23.0043 128.218 23.0292 127.986 23.079C127.77 23.1288 127.604 23.2117 127.488 23.3279C127.372 23.4274 127.314 23.5768 127.314 23.7759C127.314 23.9252 127.363 24.0497 127.463 24.1492C127.579 24.2488 127.795 24.34 128.11 24.423C128.425 24.4894 128.89 24.564 129.504 24.647C130.516 24.7797 131.329 24.9871 131.943 25.2692C132.557 25.5513 132.997 25.9578 133.262 26.4888C133.528 27.0031 133.66 27.7 133.66 28.5794C133.66 29.6082 133.453 30.4295 133.038 31.0434C132.64 31.6574 132.043 32.1054 131.246 32.3874C130.466 32.6529 129.504 32.7857 128.359 32.7857Z" fill="#332E32"/>
<path d="M139.968 32.7857C139.023 32.7857 138.251 32.6612 137.654 32.4123C137.056 32.1469 136.625 31.6906 136.359 31.0434C136.094 30.3797 135.961 29.4589 135.961 28.2808V23.4523H134.717V19.9679H135.961V17.0061H140.242V19.9679H142.93V23.4523H140.242V27.2354C140.242 27.7166 140.267 28.0983 140.317 28.3803C140.367 28.6458 140.474 28.8366 140.64 28.9528C140.806 29.0523 141.055 29.1021 141.387 29.1021C141.47 29.1021 141.611 29.1021 141.81 29.1021C142.009 29.0855 142.217 29.0772 142.432 29.0772C142.648 29.0606 142.806 29.044 142.905 29.0274L142.98 32.4123C142.714 32.4621 142.391 32.5119 142.009 32.5617C141.644 32.628 141.279 32.6778 140.914 32.711C140.549 32.7608 140.234 32.7857 139.968 32.7857Z" fill="#332E32"/>
</svg>
