<svg width="24" height="24" viewBox="0 0 24 24" xmlns="http://www.w3.org/2000/svg">
<path d="M9.55001 15.8806L18.352 7.07863C18.4493 6.9813 18.5641 6.92938 18.6963 6.92288C18.8283 6.91655 18.9493 6.96846 19.0595 7.07863C19.1698 7.18896 19.225 7.30788 19.225 7.43538C19.225 7.56305 19.1698 7.68196 19.0595 7.79213L10.1155 16.7421C9.95384 16.9036 9.76534 16.9844 9.55001 16.9844C9.33468 16.9844 9.14618 16.9036 8.98451 16.7421L4.93451 12.6921C4.83718 12.5948 4.78626 12.4791 4.78176 12.3451C4.77726 12.2111 4.83018 12.089 4.94051 11.9786C5.05068 11.8685 5.16951 11.8134 5.29701 11.8134C5.42468 11.8134 5.54359 11.8685 5.65376 11.9786L9.55001 15.8806Z" />
</svg>
