<svg width="24" height="24" viewBox="0 0 24 24" xmlns="http://www.w3.org/2000/svg">
<path d="M10.1077 12.0001L14.3537 16.2463C14.4474 16.3398 14.4974 16.4546 14.5037 16.5906C14.5102 16.7264 14.4602 16.8475 14.3537 16.9538C14.2474 17.0603 14.1295 17.1136 14 17.1136C13.8705 17.1136 13.7526 17.0603 13.6462 16.9538L9.25774 12.5656C9.17057 12.4782 9.10932 12.3891 9.07399 12.2981C9.03882 12.2071 9.02124 12.1077 9.02124 12.0001C9.02124 11.8924 9.03882 11.7931 9.07399 11.7021C9.10932 11.6111 9.17057 11.5219 9.25774 11.4346L13.6462 7.04631C13.7397 6.95265 13.8545 6.90265 13.9905 6.89631C14.1263 6.88981 14.2474 6.93981 14.3537 7.04631C14.4602 7.15265 14.5135 7.27056 14.5135 7.40006C14.5135 7.52956 14.4602 7.64748 14.3537 7.75381L10.1077 12.0001Z" />
</svg>
