<svg width="24" height="24" viewBox="0 0 24 24" xmlns="http://www.w3.org/2000/svg">
<path d="M13.2922 12L9.04622 7.75372C8.95256 7.66022 8.90256 7.54547 8.89622 7.40947C8.88972 7.27364 8.93972 7.15256 9.04622 7.04622C9.15256 6.93972 9.27047 6.88647 9.39997 6.88647C9.52947 6.88647 9.64739 6.93972 9.75372 7.04622L14.1422 11.4345C14.2294 11.5218 14.2906 11.611 14.326 11.702C14.3611 11.793 14.3787 11.8923 14.3787 12C14.3787 12.1076 14.3611 12.207 14.326 12.298C14.2906 12.389 14.2294 12.4781 14.1422 12.5655L9.75372 16.9537C9.66022 17.0474 9.54547 17.0974 9.40947 17.1037C9.27364 17.1102 9.15256 17.0602 9.04622 16.9537C8.93972 16.8474 8.88647 16.7295 8.88647 16.6C8.88647 16.4705 8.93972 16.3526 9.04622 16.2462L13.2922 12Z" />
</svg>
