<svg width="24" height="24" viewBox="0 0 24 24" xmlns="http://www.w3.org/2000/svg">
<path d="M5.6155 20C5.15517 20 4.77083 19.8458 4.4625 19.5375C4.15417 19.2292 4 18.8448 4 18.3845V5.6155C4 5.15517 4.15417 4.77083 4.4625 4.4625C4.77083 4.15417 5.15517 4 5.6155 4H18.3845C18.8448 4 19.2292 4.15417 19.5375 4.4625C19.8458 4.77083 20 5.15517 20 5.6155V18.3845C20 18.8448 19.8458 19.2292 19.5375 19.5375C19.2292 19.8458 18.8448 20 18.3845 20H5.6155ZM5.6155 19H18.3845C18.5385 19 18.6796 18.9359 18.8077 18.8077C18.9359 18.6796 19 18.5385 19 18.3845V5.6155C19 5.4615 18.9359 5.32042 18.8077 5.19225C18.6796 5.06408 18.5385 5 18.3845 5H5.6155C5.4615 5 5.32042 5.06408 5.19225 5.19225C5.06408 5.32042 5 5.4615 5 5.6155V18.3845C5 18.5385 5.06408 18.6796 5.19225 18.8077C5.32042 18.9359 5.4615 19 5.6155 19ZM8.30775 16.5H15.8462C16.0077 16.5 16.1257 16.4276 16.2 16.2828C16.2743 16.1379 16.2641 15.9949 16.1693 15.8538L14.15 13.1405C14.0628 13.0327 13.9552 12.9788 13.827 12.9788C13.6987 12.9788 13.5909 13.0327 13.5038 13.1405L11.2115 16.0385L9.7845 14.3135C9.69733 14.2187 9.59292 14.1713 9.47125 14.1713C9.34942 14.1713 9.24492 14.2251 9.15775 14.3328L8.00375 15.8538C7.89608 15.9949 7.87942 16.1379 7.95375 16.2828C8.02825 16.4276 8.14625 16.5 8.30775 16.5Z" />
</svg>
