<svg width="24" height="24" viewBox="0 0 24 24" xmlns="http://www.w3.org/2000/svg">
<path d="M9.53849 15.2308C7.93982 15.2308 6.58499 14.6754 5.47399 13.5645C4.36316 12.4535 3.80774 11.0987 3.80774 9.50004C3.80774 7.90137 4.36316 6.54654 5.47399 5.43554C6.58499 4.3247 7.93982 3.76929 9.53849 3.76929C11.1372 3.76929 12.492 4.3247 13.603 5.43554C14.7138 6.54654 15.2692 7.90137 15.2692 9.50004C15.2692 10.1949 15.1462 10.8673 14.9 11.5173C14.6538 12.1673 14.3307 12.723 13.9307 13.1845L19.8385 19.0923C19.932 19.186 19.982 19.3007 19.9885 19.4365C19.9948 19.5725 19.9448 19.6937 19.8385 19.8C19.732 19.9064 19.614 19.9595 19.4845 19.9595C19.3552 19.9595 19.2372 19.9064 19.1307 19.8L13.223 13.8923C12.723 14.318 12.148 14.6475 11.498 14.8808C10.848 15.1141 10.1948 15.2308 9.53849 15.2308ZM9.53849 14.2308C10.8653 14.2308 11.9855 13.774 12.899 12.8605C13.8125 11.9472 14.2692 10.827 14.2692 9.50004C14.2692 8.17304 13.8125 7.05287 12.899 6.13954C11.9855 5.22604 10.8653 4.76929 9.53849 4.76929C8.21149 4.76929 7.09132 5.22604 6.17799 6.13954C5.26449 7.05287 4.80774 8.17304 4.80774 9.50004C4.80774 10.827 5.26449 11.9472 6.17799 12.8605C7.09132 13.774 8.21149 14.2308 9.53849 14.2308Z" />
</svg>
