<svg width="24" height="24" viewBox="0 0 24 24" xmlns="http://www.w3.org/2000/svg">
<path d="M11.5 13.075V17.2693C11.5 17.4116 11.5478 17.5305 11.6433 17.626C11.7388 17.7215 11.8577 17.7693 12 17.7693C12.1423 17.7693 12.2613 17.7215 12.3568 17.626C12.4523 17.5305 12.5 17.4116 12.5 17.2693V13.075L14.2462 14.8212C14.2949 14.8699 14.3497 14.9064 14.4105 14.9308C14.4715 14.9551 14.5324 14.9663 14.5932 14.9645C14.6541 14.9625 14.7172 14.9493 14.7828 14.925C14.8481 14.9007 14.9051 14.8642 14.9538 14.8155C15.0603 14.7052 15.1144 14.5872 15.1163 14.4615C15.1183 14.3358 15.0641 14.2179 14.9538 14.1077L12.5655 11.7192C12.4782 11.6321 12.389 11.5708 12.298 11.5355C12.207 11.5003 12.1077 11.4827 12 11.4827C11.8923 11.4827 11.793 11.5003 11.702 11.5355C11.611 11.5708 11.5218 11.6321 11.4345 11.7192L9.04625 14.1077C8.94875 14.2051 8.89775 14.3198 8.89325 14.452C8.88875 14.584 8.94167 14.7052 9.052 14.8155C9.16217 14.9218 9.28008 14.976 9.40575 14.978C9.53142 14.9798 9.64933 14.9257 9.7595 14.8155L11.5 13.075ZM6.6155 21C6.15517 21 5.77083 20.8458 5.4625 20.5375C5.15417 20.2292 5 19.8448 5 19.3845V4.6155C5 4.15517 5.15417 3.77083 5.4625 3.4625C5.77083 3.15417 6.15517 3 6.6155 3H13.8288C14.0443 3 14.2536 3.04358 14.4568 3.13075C14.6599 3.21792 14.8339 3.33392 14.9788 3.47875L18.5212 7.02125C18.6661 7.16608 18.7821 7.34008 18.8693 7.54325C18.9564 7.74642 19 7.95575 19 8.17125V19.3845C19 19.8448 18.8458 20.2292 18.5375 20.5375C18.2292 20.8458 17.8448 21 17.3845 21H6.6155ZM14 7.19225V4H6.6155C6.4615 4 6.32042 4.06408 6.19225 4.19225C6.06408 4.32042 6 4.4615 6 4.6155V19.3845C6 19.5385 6.06408 19.6796 6.19225 19.8078C6.32042 19.9359 6.4615 20 6.6155 20H17.3845C17.5385 20 17.6796 19.9359 17.8077 19.8078C17.9359 19.6796 18 19.5385 18 19.3845V8H14.8077C14.5756 8 14.3829 7.92342 14.2298 7.77025C14.0766 7.61708 14 7.42442 14 7.19225Z" />
</svg>
