<svg width="24" height="25" viewBox="0 0 24 25" xmlns="http://www.w3.org/2000/svg">
<path d="M12 13.2078L6.75372 18.4538C6.66022 18.5474 6.54547 18.5974 6.40947 18.6038C6.27364 18.6103 6.15256 18.5603 6.04622 18.4538C5.93972 18.3474 5.88647 18.2295 5.88647 18.1C5.88647 17.9705 5.93972 17.8526 6.04622 17.7463L11.2922 12.5L6.04622 7.25376C5.95256 7.16026 5.90256 7.0455 5.89622 6.9095C5.88972 6.77367 5.93972 6.65259 6.04622 6.54625C6.15256 6.43975 6.27047 6.38651 6.39997 6.38651C6.52947 6.38651 6.64739 6.43975 6.75372 6.54625L12 11.7923L17.2462 6.54625C17.3397 6.45259 17.4545 6.40259 17.5905 6.39625C17.7263 6.38975 17.8474 6.43975 17.9537 6.54625C18.0602 6.65259 18.1135 6.7705 18.1135 6.9C18.1135 7.0295 18.0602 7.14742 17.9537 7.25376L12.7077 12.5L17.9537 17.7463C18.0474 17.8398 18.0974 17.9545 18.1037 18.0905C18.1102 18.2263 18.0602 18.3474 17.9537 18.4538C17.8474 18.5603 17.7295 18.6135 17.6 18.6135C17.4705 18.6135 17.3526 18.5603 17.2462 18.4538L12 13.2078Z" />
</svg>
