<svg width="32" height="32" viewBox="0 0 32 32"  xmlns="http://www.w3.org/2000/svg">
<path d="M28.7074 9.70745L12.7074 25.7074C12.6146 25.8004 12.5043 25.8742 12.3829 25.9245C12.2615 25.9748 12.1314 26.0007 11.9999 26.0007C11.8685 26.0007 11.7384 25.9748 11.617 25.9245C11.4956 25.8742 11.3853 25.8004 11.2924 25.7074L4.29245 18.7074C4.1048 18.5198 3.99939 18.2653 3.99939 17.9999C3.99939 17.7346 4.1048 17.4801 4.29245 17.2924C4.48009 17.1048 4.73458 16.9994 4.99995 16.9994C5.26531 16.9994 5.5198 17.1048 5.70745 17.2924L11.9999 23.5862L27.2924 8.29245C27.4801 8.1048 27.7346 7.99939 27.9999 7.99939C28.2653 7.99939 28.5198 8.1048 28.7074 8.29245C28.8951 8.48009 29.0005 8.73458 29.0005 8.99995C29.0005 9.26531 28.8951 9.51981 28.7074 9.70745Z" />
</svg>
