<svg width="32" height="32" viewBox="0 0 32 32"  xmlns="http://www.w3.org/2000/svg">
<path d="M21 18.9999C21 19.2652 20.8946 19.5195 20.7071 19.707C20.5196 19.8946 20.2652 19.9999 20 19.9999H12C11.7348 19.9999 11.4804 19.8946 11.2929 19.707C11.1054 19.5195 11 19.2652 11 18.9999C11 18.7347 11.1054 18.4804 11.2929 18.2928C11.4804 18.1053 11.7348 17.9999 12 17.9999H20C20.2652 17.9999 20.5196 18.1053 20.7071 18.2928C20.8946 18.4804 21 18.7347 21 18.9999ZM20 13.9999H12C11.7348 13.9999 11.4804 14.1053 11.2929 14.2928C11.1054 14.4804 11 14.7347 11 14.9999C11 15.2652 11.1054 15.5195 11.2929 15.707C11.4804 15.8946 11.7348 15.9999 12 15.9999H20C20.2652 15.9999 20.5196 15.8946 20.7071 15.707C20.8946 15.5195 21 15.2652 21 14.9999C21 14.7347 20.8946 14.4804 20.7071 14.2928C20.5196 14.1053 20.2652 13.9999 20 13.9999ZM27 5.99994V26.9999C27 27.5304 26.7893 28.0391 26.4142 28.4142C26.0391 28.7892 25.5304 28.9999 25 28.9999H7C6.46957 28.9999 5.96086 28.7892 5.58579 28.4142C5.21071 28.0391 5 27.5304 5 26.9999V5.99994C5 5.46951 5.21071 4.9608 5.58579 4.58573C5.96086 4.21065 6.46957 3.99994 7 3.99994H11.5325C12.0944 3.37085 12.7828 2.86751 13.5527 2.52289C14.3225 2.17826 15.1565 2.00012 16 2.00012C16.8435 2.00012 17.6775 2.17826 18.4473 2.52289C19.2172 2.86751 19.9056 3.37085 20.4675 3.99994H25C25.5304 3.99994 26.0391 4.21065 26.4142 4.58573C26.7893 4.9608 27 5.46951 27 5.99994ZM12 7.99994H20C20 6.93907 19.5786 5.92166 18.8284 5.17151C18.0783 4.42137 17.0609 3.99994 16 3.99994C14.9391 3.99994 13.9217 4.42137 13.1716 5.17151C12.4214 5.92166 12 6.93907 12 7.99994ZM25 5.99994H21.6562C21.8837 6.64221 22 7.31858 22 7.99994V8.99994C22 9.26516 21.8946 9.51951 21.7071 9.70705C21.5196 9.89458 21.2652 9.99994 21 9.99994H11C10.7348 9.99994 10.4804 9.89458 10.2929 9.70705C10.1054 9.51951 10 9.26516 10 8.99994V7.99994C10 7.31858 10.1163 6.64221 10.3438 5.99994H7V26.9999H25V5.99994Z" />
</svg>
